:FULLY-SPECIFIED
:FORCE-ALL-JOINTS-BE-3DOF
:DEGREES
33
root 7.98788 15.7203 -32.1549 7.61409 -8.08611 -7.0923
lfemur -41.3277 5.48322 -9.19877
ltibia 24.5256 -0 0
lfoot -8.6023 11.4414 -0.0647024
ltoes -11.4644 0 0
rfemur 19.2474 6.87578 30.4017
rtibia 9.54168e-15 0 0
rfoot -11.934 -0.729126 -0.00524449
rtoes -22.7008 0 0
lowerback -8.32478 1.50883 3.60479
upperback -0.996214 1.53044 3.61763
thorax 3.63354 0.785296 1.90149
lowerneck -20.7239 -4.54413 -11.6971
upperneck 16.2562 -5.82006 14.5882
head 9.34281 -1.92 6.23714
lclavicle -1.38673e-14 -5.43344e-15 0
lhumerus -43.2243 -8.22323 91.2041
lradius 26.0329 -0 0
lwrist 3.18556 0 0
lhand -9.9171 -23.7713 0.00667027
lfingers 7.12502 0 0
lthumb 16.0634 5.58189 0.00616492
rclavicle -1.38673e-14 -5.43344e-15 0
rhumerus -44.1316 20.687 -92.9952
rradius 60.4633 -0 0
rwrist -29.771 0 0
rhand -30.3831 -30.8564 0.00112383
rfingers 7.12502 0 0
rthumb -3.68737 -60.8041 0.00107701
34
root 8.01686 15.7097 -31.9878 7.64693 -8.17629 -7.06346
lfemur -41.6836 6.01597 -9.59807
ltibia 25.7511 -0 0
lfoot -6.77337 10.9343 -0.0727969
ltoes -10.334 0 0
rfemur 19.8366 6.78033 30.1421
rtibia 6.36113e-15 0 0
rfoot -11.0347 -0.812677 -0.00590018
rtoes -16.1211 0 0
lowerback -8.44807 1.46423 3.43979
upperback -0.982579 1.47417 3.70753
thorax 3.71064 0.754929 2.08536
lowerneck -20.8337 -4.54655 -11.6536
upperneck 16.2204 -5.79628 14.4745
head 9.34086 -1.91413 6.19018
lclavicle -1.22718e-14 -9.54165e-15 0
lhumerus -43.4171 -8.21286 91.4219
lradius 25.8702 -0 0
lwrist 3.01135 0 0
lhand -9.69672 -23.3377 0.0075041
lfingers 7.12502 0 0
lthumb 16.2756 5.99809 0.00693557
rclavicle -1.22718e-14 -9.54165e-15 0
rhumerus -44.2737 20.7536 -93.1195
rradius 60.0585 -0 0
rwrist -29.511 0 0
rhand -30.2961 -30.6713 0.00126431
rfingers 7.12502 0 0
rthumb -3.60338 -60.6205 0.00121164
35
root 8.04585 15.6991 -31.8208 7.67972 -8.26648 -7.03467
lfemur -42.0437 6.54623 -10.0011
ltibia 26.9766 -0 0
lfoot -4.94443 10.4272 -0.0647024
ltoes -9.20355 0 0
rfemur 20.4262 6.68754 29.8815
rtibia 3.18057e-15 0 0
rfoot -10.1355 -0.896229 -0.00524449
rtoes -9.54132 0 0
lowerback -8.57122 1.41928 3.27489
upperback -0.969033 1.41788 3.79742
thorax 3.78764 0.724315 2.26919
lowerneck -20.9435 -4.54889 -11.6101
upperneck 16.1845 -5.77258 14.3608
head 9.33891 -1.90826 6.14322
lclavicle -1.06764e-14 -1.36499e-14 0
lhumerus -43.6098 -8.20177 91.6396
lradius 25.7075 -0 0
lwrist 2.83713 0 0
lhand -9.47635 -22.9041 0.00667027
lfingers 7.12502 0 0
lthumb 16.4878 6.41428 0.00616492
rclavicle -1.06764e-14 -1.36499e-14 0
rhumerus -44.416 20.82 -93.2441
rradius 59.6537 -0 0
rwrist -29.251 0 0
rhand -30.2091 -30.4862 0.00112383
rfingers 7.12502 0 0
rthumb -3.51939 -60.4368 0.00107701
36
root 8.07483 15.6885 -31.6538 7.71248 -8.35669 -7.00592
lfemur -42.4079 7.07395 -10.4079
ltibia 28.2021 -0 0
lfoot -3.11564 9.92063 -0.0404279
ltoes -8.07313 0 0
rfemur 21.016 6.59741 29.6201
rtibia 8.33333e-21 0 0
rfoot -9.23623 -0.97976 -0.0032776
rtoes -2.96157 0 0
lowerback -8.69424 1.37397 3.11009
upperback -0.955576 1.36156 3.88729
thorax 3.86455 0.693454 2.45298
lowerneck -21.0532 -4.55114 -11.5666
upperneck 16.1486 -5.74894 14.2471
head 9.33695 -1.9024 6.09626
lclavicle -9.08094e-15 -1.77581e-14 0
lhumerus -43.8024 -8.18995 91.8573
lradius 25.5447 -0 0
lwrist 2.66292 0 0
lhand -9.25599 -22.4706 0.00416885
lfingers 7.12502 0 0
lthumb 16.7 6.83048 0.00385301
rclavicle -9.08094e-15 -1.77581e-14 0
rhumerus -44.5586 20.8861 -93.3689
rradius 59.2489 -0 0
rwrist -28.9911 0 0
rhand -30.1222 -30.3011 0.000702391
rfingers 7.12502 0 0
rthumb -3.43541 -60.2531 0.000673131
37
root 8.10381 15.6779 -31.4868 7.7452 -8.44692 -6.97722
lfemur -42.7763 7.59908 -10.8186
ltibia 29.4276 0 0
lfoot -1.28713 9.41507 0
ltoes -6.94272 0 0
rfemur 21.6062 6.50996 29.3578
rtibia -3.18055e-15 0 0
rfoot -8.33698 -1.06325 0
rtoes 3.61817 0 0
lowerback -8.81713 1.32831 2.94539
upperback -0.942207 1.30523 3.97714
thorax 3.94135 0.662346 2.63672
lowerneck -21.163 -4.55331 -11.5231
upperneck 16.1126 -5.72538 14.1334
head 9.33499 -1.89653 6.0493
lclavicle -7.48549e-15 -2.18663e-14 0
lhumerus -43.995 -8.1774 92.075
lradius 25.382 0 0
lwrist 2.4887 0 0
lhand -9.03565 -22.037 0
lfingers 7.12502 0 0
lthumb 16.9121 7.24666 0
rclavicle -7.48549e-15 -2.18663e-14 0
rhumerus -44.7013 20.9519 -93.4939
rradius 58.8441 0 0
rwrist -28.7311 0 0
rhand -30.0352 -30.116 0
rfingers 7.12502 0 0
rthumb -3.35142 -60.0694 0
